<svg xmlns="http://www.w3.org/2000/svg" viewBox="0 0 1000 1100" width="1000" height="1100">
  <!-- Определения стилей и маркеров -->
  <defs>
    <marker id="arrowhead" markerWidth="10" markerHeight="7" refX="9" refY="3.5" orient="auto">
      <polygon points="0 0, 10 3.5, 0 7" fill="#3498db" />
    </marker>
    <style>
      .box {
        fill: #ecf0f1;
        stroke: #2c3e50;
        stroke-width: 2;
        rx: 5;
        ry: 5;
      }
      .box-highlight {
        fill: #d6eaf8;
      }
      .arrow {
        fill: none;
        stroke: #3498db;
        stroke-width: 2;
        marker-end: url(#arrowhead);
      }
      .subcomponent {
        fill: #f8f9f9;
        stroke: #7f8c8d;
        stroke-width: 1;
        stroke-dasharray: 4, 2;
        rx: 3;
        ry: 3;
      }
      text {
        font-family: Arial, sans-serif;
        font-size: 14px;
      }
      .title {
        font-size: 22px;
        font-weight: bold;
        fill: #2c3e50;
      }
      .section-title {
        font-size: 18px;
        font-weight: bold;
        fill: #3498db;
      }
      .code {
        font-family: Consolas, monospace;
        fill: #e74c3c;
      }
    </style>
  </defs>

  <!-- Фон диаграммы -->
  <rect x="0" y="0" width="1000" height="1100" fill="#f5f5f5" />
  
  <!-- Заголовок диаграммы -->
  <text x="500" y="40" text-anchor="middle" class="title">Схема взаимодействия компонентов</text>
  
  <!-- Раздел 1: Общая схема взаимодействия -->
  <rect x="50" y="60" width="900" height="300" fill="white" stroke="#ddd" stroke-width="1" rx="5" ry="5" />
  <text x="60" y="85" class="section-title">Общая схема взаимодействия</text>
  
  <!-- PlayerController -->
  <rect x="100" y="100" width="160" height="60" class="box" />
  <text x="180" y="135" text-anchor="middle" font-weight="bold">PlayerController</text>
  
  <!-- Raycast -->
  <rect x="350" y="100" width="120" height="60" class="box" />
  <text x="410" y="135" text-anchor="middle" font-weight="bold">Raycast</text>
  
  <!-- ItemContext -->
  <rect x="330" y="200" width="160" height="120" class="box box-highlight" />
  <text x="410" y="225" text-anchor="middle" font-weight="bold">ItemContext</text>
  <text x="410" y="245" text-anchor="middle" font-size="12">ID, Type, Frequency</text>
  <text x="410" y="265" text-anchor="middle" font-size="12">Color, State, IsDestroyed</text>
  <text x="410" y="285" text-anchor="middle" font-size="12">управление состоянием</text>
  
  <!-- IItemStateStrategy -->
  <rect x="580" y="200" width="200" height="120" class="box" />
  <text x="680" y="225" text-anchor="middle" font-weight="bold">IItemStateStrategy</text>
  <rect x="600" y="240" width="160" height="25" class="subcomponent" />
  <text x="680" y="257" text-anchor="middle" font-size="12">ActiveStateStrategy</text>
  <rect x="600" y="270" width="160" height="25" class="subcomponent" />
  <text x="680" y="287" text-anchor="middle" font-size="12">PassiveStateStrategy</text>
  <rect x="600" y="300" width="160" height="25" class="subcomponent" />
  <text x="680" y="317" text-anchor="middle" font-size="12">PeriodicStateStrategy</text>
  
  <!-- Arrows -->
  <path d="M 260 130 L 350 130" class="arrow" />
  <text x="300" y="120" font-size="12">проверяет объекты</text>
  
  <path d="M 410 160 L 410 200" class="arrow" />
  <text x="420" y="180" font-size="12">если найден</text>
  
  <path d="M 280 220 L 330 220" class="arrow" />
  <text x="285" y="210" font-size="12" class="code">ЛКМ → TransmitData()</text>
  
  <path d="M 280 260 L 330 260" class="arrow" />
  <text x="285" y="250" font-size="12" class="code">E → DestroyItem()</text>
  
  <path d="M 490 250 L 580 250" class="arrow" />
  <text x="535" y="240" font-size="12">управляет</text>
  
  <!-- Раздел 2: ItemSpawner и ItemFactory -->
  <rect x="50" y="380" width="900" height="280" fill="white" stroke="#ddd" stroke-width="1" rx="5" ry="5" />
  <text x="60" y="405" class="section-title">ItemSpawner и ItemFactory</text>
  
  <!-- ItemSpawner -->
  <rect x="100" y="420" width="160" height="60" class="box" />
  <text x="180" y="455" text-anchor="middle" font-weight="bold">ItemSpawner</text>
  
  <!-- ItemSpawnConfig -->
  <rect x="100" y="560" width="160" height="60" class="box" />
  <text x="180" y="595" text-anchor="middle" font-weight="bold">ItemSpawnConfig</text>
  
  <!-- ItemFactory -->
  <rect x="350" y="420" width="160" height="60" class="box" />
  <text x="430" y="455" text-anchor="middle" font-weight="bold">ItemFactory</text>
  
  <!-- Factory Details -->
  <rect x="350" y="520" width="160" height="100" class="box" />
  <text x="430" y="545" text-anchor="middle" font-size="12">Устанавливает:</text>
  <text x="430" y="565" text-anchor="middle" font-size="12">- случайный ItemType</text>
  <text x="430" y="585" text-anchor="middle" font-size="12">- случайный Strategy</text>
  <text x="430" y="605" text-anchor="middle" font-size="12">- случайный Interactable</text>
  
  <!-- ItemContext -->
  <rect x="600" y="420" width="160" height="60" class="box box-highlight" />
  <text x="680" y="455" text-anchor="middle" font-weight="bold">ItemContext</text>
  
  <!-- Arrows -->
  <path d="M 180 480 L 180 560" class="arrow" />
  <text x="190" y="520" font-size="12">берёт настройки</text>
  
  <path d="M 260 450 L 350 450" class="arrow" />
  <text x="300" y="440" font-size="12">создаёт предметы</text>
  
  <path d="M 430 480 L 430 520" class="arrow" />
  
  <path d="M 510 450 L 600 450" class="arrow" />
  <text x="550" y="440" font-size="12">Initialize(...)</text>
  
  <!-- Раздел 3: Детальное взаимодействие с PlayerController -->
  <rect x="50" y="680" width="900" height="190" fill="white" stroke="#ddd" stroke-width="1" rx="5" ry="5" />
  <text x="60" y="705" class="section-title">Детальное взаимодействие с PlayerController</text>
  
  <!-- PlayerController -->
  <rect x="100" y="720" width="160" height="60" class="box" />
  <text x="180" y="755" text-anchor="middle" font-weight="bold">PlayerController</text>
  
  <!-- Raycast -->
  <rect x="350" y="720" width="120" height="60" class="box" />
  <text x="410" y="755" text-anchor="middle" font-weight="bold">Raycast</text>
  
  <!-- ItemContext -->
  <rect x="350" y="800" width="160" height="60" class="box box-highlight" />
  <text x="430" y="835" text-anchor="middle" font-weight="bold">ItemContext</text>
  
  <!-- CurrentStrategy -->
  <rect x="600" y="800" width="160" height="60" class="box" />
  <text x="680" y="835" text-anchor="middle" font-weight="bold">CurrentStrategy</text>
  
  <!-- Arrows -->
  <path d="M 260 750 L 350 750" class="arrow" />
  <text x="300" y="740" font-size="12">проверяет объекты</text>
  
  <path d="M 410 780 L 410 800" class="arrow" />
  <text x="420" y="795" font-size="12">если найден</text>
  
  <path d="M 330 830 L 300 830 L 300 750 L 260 750" class="arrow" />
  <text x="275" y="790" font-size="12" class="code">ЛКМ / E</text>
  
  <path d="M 510 830 L 600 830" class="arrow" />
  <text x="550" y="820" font-size="12">TransmitData(ItemData)</text>
  
  <!-- Раздел 4: Взаимодействие стратегий состояния -->
  <rect x="50" y="890" width="900" height="190" fill="white" stroke="#ddd" stroke-width="1" rx="5" ry="5" />
  <text x="60" y="915" class="section-title">Взаимодействие стратегий состояния</text>
  
  <!-- ItemContext -->
  <rect x="100" y="930" width="200" height="120" class="box box-highlight" />
  <text x="200" y="955" text-anchor="middle" font-weight="bold">ItemContext</text>
  <text x="200" y="975" text-anchor="middle" font-size="12">Управляет:</text>
  <text x="200" y="995" text-anchor="middle" font-size="12">- изменением цвета</text>
  <text x="200" y="1015" text-anchor="middle" font-size="12">- изменением состояния</text>
  <text x="200" y="1035" text-anchor="middle" font-size="12">- уничтожением объекта</text>
  
  <!-- IItemStateStrategy -->
  <rect x="450" y="930" width="200" height="40" class="box" />
  <text x="550" y="955" text-anchor="middle" font-weight="bold">IItemStateStrategy</text>
  
  <!-- Strategy implementations -->
  <rect x="400" y="990" width="200" height="40" class="box" />
  <text x="500" y="1015" text-anchor="middle" font-weight="bold">ActiveStateStrategy</text>
  
  <rect x="620" y="990" width="200" height="40" class="box" />
  <text x="720" y="1015" text-anchor="middle" font-weight="bold">PassiveStateStrategy</text>
  
  <rect x="500" y="1050" width="200" height="40" class="box" />
  <text x="600" y="1075" text-anchor="middle" font-weight="bold">PeriodicStateStrategy</text>
  
  <!-- Arrows -->
  <path d="M 300 970 L 450 950" class="arrow" />
  <text x="350" y="950" font-size="12">взаимодействует</text>
  
  <path d="M 500 970 L 500 990" class="arrow" />
  <path d="M 600 970 L 720 990" class="arrow" />
  <path d="M 550 970 L 600 1050" class="arrow" />
  
  <path d="M 400 1010 L 350 1010 L 350 1010 L 300 1010" class="arrow" />
  <text x="340" y="1000" font-size="12">TransmitData()</text>
  
  <path d="M 500 1050 L 400 1050 L 400 1030 L 300 1030" class="arrow" />
  <text x="340" y="1040" font-size="12">периодическое поведение</text>
  
  <!-- Подпись диаграммы -->
  <text x="500" y="1090" text-anchor="middle" font-size="12" fill="#666">Схема взаимодействия компонентов на основе markdown скрипта</text>

</svg>